<?xml version="1.0" standalone="no"?>
<!DOCTYPE svg PUBLIC "-//W3C//DTD SVG 20010904//EN"
 "http://www.w3.org/TR/2001/REC-SVG-20010904/DTD/svg10.dtd">
<svg version="1.0" xmlns="http://www.w3.org/2000/svg"
 width="1024.000000pt" height="1024.000000pt" viewBox="0 0 1024.000000 1024.000000"
 preserveAspectRatio="xMidYMid meet">

<g transform="translate(0.000000,1024.000000) scale(0.100000,-0.100000)"
fill="#000000" stroke="none">
<path d="M0 5120 l0 -5120 5120 0 5120 0 0 5120 0 5120 -5120 0 -5120 0 0
-5120z m5445 4104 c335 -41 658 -136 950 -279 177 -87 368 -200 445 -264 25
-20 86 -65 135 -99 50 -34 115 -84 145 -111 l55 -49 -24 -26 c-33 -35 -45 -33
-65 12 -9 20 -32 47 -51 59 l-34 23 5 -28 c4 -22 -6 -40 -51 -97 -30 -38 -70
-89 -87 -112 -36 -49 -49 -53 -67 -19 -12 22 -9 30 55 107 37 46 84 101 103
122 23 24 32 40 25 45 -42 28 -184 133 -213 158 -34 29 -73 54 -85 54 -3 0 -6
-6 -6 -13 0 -10 -130 -230 -157 -266 -1 -2 -10 2 -18 9 -11 9 -14 22 -10 39 9
37 134 241 147 241 19 0 -29 45 -61 56 -26 10 -29 10 -28 -6 0 -9 -28 -74 -63
-143 -47 -91 -70 -127 -83 -127 -34 0 -28 31 34 165 55 118 66 136 83 131 29
-8 -30 40 -66 53 -24 8 -27 7 -33 -17 -7 -32 -104 -253 -117 -267 -5 -6 -14
-3 -24 6 -14 14 -13 22 9 80 13 35 42 98 63 139 21 41 40 78 42 82 3 7 -39 31
-74 42 -18 6 -22 2 -27 -27 -4 -24 -82 -249 -92 -264 -6 -9 -45 13 -45 26 0 9
25 77 54 151 l55 135 -32 17 c-18 9 -37 17 -43 18 -6 0 -32 -64 -59 -142 -26
-79 -51 -147 -56 -153 -6 -6 -15 -3 -25 7 -14 14 -13 25 20 129 20 63 45 128
56 145 l18 32 -26 11 c-53 20 -82 24 -82 10 0 -8 -16 -77 -36 -155 -32 -126
-38 -141 -55 -137 -11 3 -22 9 -24 14 -7 11 18 116 49 211 32 93 32 96 4 107
-61 23 -68 23 -68 4 0 -19 -59 -285 -64 -291 -2 -1 -15 2 -29 7 l-25 10 32
128 c18 70 36 138 40 150 6 19 3 23 -31 28 -21 4 -45 9 -54 11 -12 3 -16 -4
-17 -32 -1 -37 -29 -214 -38 -246 -3 -11 -15 -18 -30 -18 -19 0 -24 5 -24 26
0 28 47 260 55 274 4 6 -75 30 -99 30 -2 0 -6 -39 -10 -87 -4 -49 -13 -117
-19 -153 -12 -60 -15 -65 -37 -62 -13 1 -25 4 -27 6 -4 4 22 166 38 239 6 26
16 47 22 47 25 1 -21 18 -64 24 l-46 7 -12 -128 c-16 -171 -16 -173 -46 -173
-21 0 -25 5 -25 28 0 33 27 229 36 258 5 18 0 22 -26 28 -78 15 -80 14 -80
-66 0 -40 -3 -110 -7 -156 -6 -77 -8 -83 -27 -80 -20 3 -21 8 -19 128 2 69 5
140 8 158 l6 32 -50 0 -50 0 -3 -152 c-3 -150 -3 -153 -25 -156 -27 -4 -26
-11 -23 177 l2 144 -147 -7 c-250 -12 -423 -39 -675 -106 -242 -65 -316 -93
-570 -213 -144 -68 -184 -93 -400 -244 -149 -104 -203 -149 -365 -309 -104
-102 -199 -190 -211 -194 -12 -5 -24 -21 -27 -37 -3 -16 -23 -51 -45 -78 -255
-324 -422 -668 -551 -1135 -46 -166 -91 -465 -91 -607 l0 -53 -36 0 -36 0 6
108 c37 566 242 1160 555 1607 76 109 130 175 148 185 16 8 47 41 69 73 100
149 478 470 734 625 350 211 799 363 1230 418 131 16 541 9 715 -12z m-527
-206 c18 -127 17 -138 -15 -140 -31 -2 -53 -4 -168 -13 -44 -4 -101 -13 -127
-20 l-48 -14 -16 35 c-19 39 -34 31 -34 -17 0 -23 -6 -28 -46 -38 -26 -7 -50
-8 -54 -4 -4 4 -17 48 -30 96 -16 64 -19 92 -12 99 6 6 37 13 69 16 31 3 63
10 69 17 19 18 113 28 130 14 11 -9 14 -9 14 1 0 8 3 11 6 7 4 -3 13 0 21 8
22 23 74 19 80 -5 3 -11 10 -20 15 -20 6 0 8 -6 5 -14 -4 -9 3 -16 19 -19 22
-4 24 -1 24 39 0 36 3 43 23 47 64 12 63 13 75 -75z m112 -28 l0 -100 -27 0
-28 0 0 100 0 100 28 0 27 0 0 -100z m-2527 -313 l308 -304 -30 -48 -30 -47
-258 258 c-275 276 -373 382 -373 406 0 8 9 24 20 36 16 17 25 20 38 13 9 -6
156 -147 325 -314z m5470 295 c32 -28 44 -10 -202 -296 -58 -67 -163 -180
-235 -251 -72 -72 -138 -142 -147 -156 -10 -14 -38 -36 -64 -50 l-46 -24 -35
38 -35 38 19 31 c11 17 81 88 156 157 312 289 374 350 431 420 98 120 114 130
158 93z m-3640 -54 c33 -119 33 -126 1 -139 -70 -26 -81 -24 -94 17 -19 59
-59 134 -71 134 -6 0 -8 -7 -5 -15 21 -56 47 -157 43 -168 -7 -17 -83 -40
-107 -32 -16 5 -20 2 -20 -14 0 -12 -5 -21 -11 -21 -6 0 -60 -23 -120 -51 -60
-28 -113 -48 -119 -44 -5 3 -32 40 -59 81 l-49 74 65 37 c89 49 247 118 367
158 54 19 101 36 104 39 3 3 17 6 31 6 24 0 28 -6 44 -62z m32 2 c9 -32 2 -25
-20 20 -13 27 -14 32 -2 20 8 -8 18 -26 22 -40z m-1269 -50 c36 -23 58 -74 49
-113 -4 -14 -20 -37 -35 -52 -25 -24 -35 -27 -71 -22 -57 8 -81 33 -81 89 -1
49 17 84 54 105 32 17 46 16 84 -7z m4087 -20 c66 -73 8 -174 -101 -174 -72 0
-105 86 -59 155 45 66 109 74 160 19z m-1896 -135 c203 -12 459 -67 641 -137
238 -92 532 -265 720 -423 170 -143 380 -376 496 -549 168 -254 294 -542 361
-821 45 -188 54 -255 66 -479 16 -290 -3 -506 -66 -752 -30 -119 -52 -179
-148 -403 -38 -91 -160 -301 -229 -396 -145 -199 -352 -414 -547 -569 -94 -75
-321 -203 -496 -281 -369 -164 -648 -225 -1032 -225 -196 0 -282 8 -479 45
-494 93 -1022 395 -1382 791 -268 293 -465 671 -566 1085 -51 210 -66 312 -73
514 -7 219 6 370 52 595 92 444 274 800 596 1163 240 270 513 483 789 614 322
153 579 217 930 232 169 7 190 7 367 -4z m-1531 -122 l23 -51 -67 -35 c-104
-55 -317 -216 -451 -342 -134 -126 -400 -457 -492 -613 -133 -225 -253 -526
-309 -778 -28 -122 -61 -354 -67 -461 l-6 -123 -119 0 c-134 0 -125 -8 -108
95 6 33 13 87 16 120 30 322 107 617 241 930 93 219 242 464 374 617 41 47 94
109 119 139 177 214 487 473 714 595 l59 32 25 -36 c14 -21 35 -60 48 -89z
m3018 51 c27 -11 18 -33 -56 -139 -40 -56 -78 -111 -84 -121 -11 -19 -12 -19
-32 0 -20 17 -20 20 -5 50 16 32 150 216 157 216 3 0 11 -3 20 -6z m111 -88
c18 -13 18 -15 -4 -52 -51 -87 -152 -213 -167 -207 -31 12 -28 51 8 91 19 21
54 70 79 110 24 39 49 72 55 72 5 0 19 -6 29 -14z m894 -183 c23 -19 41 -40
41 -46 0 -13 -126 -127 -140 -127 -14 0 -47 70 -53 112 -4 34 -1 41 33 72 45
41 61 39 119 -11z m-691 -16 c4 -31 -17 -68 -88 -157 -28 -34 -50 -66 -50 -71
0 -15 -13 -10 -44 15 l-30 23 90 97 c49 53 91 104 92 112 6 24 27 10 30 -19z
m433 -120 c-10 -9 -11 -8 -5 6 3 10 9 15 12 12 3 -3 0 -11 -7 -18z m130 -25
c14 -25 14 -29 -6 -50 -17 -18 -23 -20 -35 -10 -12 11 -12 10 -2 -3 10 -13 6
-21 -18 -44 -17 -16 -30 -24 -30 -19 0 6 3 14 7 18 11 10 15 37 14 88 -1 36 3
47 17 50 25 6 35 1 53 -30z m-498 -79 c27 -44 27 -47 10 -56 -10 -6 -36 -30
-58 -54 -23 -23 -46 -43 -52 -43 -14 0 -37 56 -29 75 3 8 0 15 -6 15 -7 0 12
25 42 55 30 30 57 55 60 55 3 0 18 -22 33 -47z m287 -26 c75 -86 218 -296 286
-422 194 -357 335 -815 379 -1230 8 -77 15 -166 15 -197 0 -57 -1 -58 -28 -58
l-28 0 -12 148 c-17 209 -37 333 -83 522 -67 278 -118 417 -248 680 -96 193
-164 307 -259 434 -85 114 -89 121 -72 141 17 20 16 20 50 -18z m-96 -33 c38
-15 9 -45 -142 -153 -59 -42 -76 -50 -88 -40 -26 22 -15 48 39 88 43 33 165
111 173 111 1 0 9 -3 18 -6z m84 -106 c22 -22 13 -35 -60 -83 -40 -26 -89 -61
-109 -76 -20 -16 -46 -29 -57 -29 -22 0 -38 28 -24 42 12 12 225 156 233 157
3 1 10 -4 17 -11z m82 -132 c0 -6 -17 -20 -38 -32 -20 -11 -74 -42 -119 -68
-69 -40 -85 -46 -98 -36 -8 7 -15 16 -15 21 0 7 147 97 215 132 31 15 55 8 55
-17z m68 -98 c3 -18 -30 -43 -162 -123 -75 -44 -80 -46 -93 -29 -7 10 -13 21
-13 25 0 12 234 149 250 146 8 -1 16 -10 18 -19z m60 -120 c-2 -17 -32 -41
-113 -90 -60 -37 -116 -67 -122 -67 -12 -1 -30 46 -22 53 2 2 54 31 114 65
120 67 148 74 143 39z m630 -55 c73 -54 79 -128 16 -201 -41 -49 -84 -61 -135
-39 -108 45 -130 166 -43 235 59 47 103 49 162 5z m-6261 10 c68 -32 92 -112
55 -183 -63 -119 -242 -74 -242 61 0 54 27 95 82 122 42 21 62 21 105 0z
m5691 -64 c3 -18 -124 -97 -202 -126 -46 -17 -48 -17 -62 1 -17 24 -13 28 46
49 25 10 77 35 115 57 73 41 98 46 103 19z m52 -120 c7 -11 10 -22 8 -24 -12
-12 -235 -115 -249 -115 -19 0 -36 37 -22 50 4 5 43 23 87 40 43 17 95 39 115
50 46 24 48 24 61 -1z m54 -125 c10 -27 7 -30 -36 -43 -24 -7 -80 -29 -125
-48 -83 -35 -113 -37 -113 -8 0 18 68 51 184 90 85 29 82 29 90 9z m41 -115
c4 -11 5 -21 3 -22 -7 -5 -107 -40 -181 -65 -67 -23 -79 -25 -87 -12 -6 10 -5
20 4 28 11 11 224 89 248 91 4 1 10 -8 13 -20z m35 -129 c0 -10 -34 -25 -113
-49 -162 -49 -157 -48 -157 -18 0 24 7 28 103 57 56 17 113 35 127 39 26 8 40
-2 40 -29z m24 -96 c28 -11 17 -32 -20 -38 -19 -4 -79 -21 -132 -37 -91 -28
-98 -29 -109 -12 -19 25 -16 32 15 39 15 3 61 15 102 25 41 10 86 20 100 22
14 2 26 5 27 6 1 0 8 -2 17 -5z m33 -120 c3 -8 2 -19 -4 -25 -6 -6 -236 -59
-258 -59 -9 0 -11 41 -3 46 10 7 211 50 241 53 10 0 20 -6 24 -15z m33 -108
c0 -8 3 -21 6 -30 5 -12 0 -16 -19 -16 -22 0 -173 -29 -241 -46 -24 -6 -26 -3
-26 24 0 34 0 34 185 67 92 17 95 17 95 1z m30 -135 c5 -11 7 -22 3 -24 -20
-13 -286 -38 -296 -28 -14 14 -1 41 20 41 10 1 56 7 103 14 125 20 157 20 170
-3z m18 -120 c-4 -18 -78 -34 -212 -45 -79 -6 -84 -6 -89 14 -8 31 20 39 158
48 133 9 147 7 143 -17z m-8 -120 l0 -29 -127 -4 c-122 -5 -163 1 -163 22 0
14 29 19 160 29 63 4 118 9 123 10 4 0 7 -12 7 -28z m-2 -104 c3 -15 -11 -17
-127 -17 -109 0 -131 3 -131 15 0 12 22 15 118 17 143 4 136 5 140 -15z
m-5917 -84 c30 -30 -4 -33 -361 -33 -376 0 -370 -1 -370 41 0 15 716 7 731 -8z
m6627 -5 l-3 -23 -460 -7 c-253 -4 -470 -5 -482 -3 -13 3 -23 10 -23 15 0 5
10 12 23 15 52 13 295 22 610 24 l338 1 -3 -22z m-6310 -205 c26 -324 144
-719 308 -1032 128 -244 199 -338 458 -611 133 -140 125 -123 80 -172 -22 -24
-51 -58 -65 -76 l-26 -33 -54 44 c-57 46 -230 235 -322 351 -180 225 -350 531
-450 806 -98 273 -187 658 -187 811 l0 59 123 0 123 0 12 -147z m-348 63 c0
-53 28 -259 50 -367 27 -133 101 -382 150 -509 89 -229 253 -525 392 -710 130
-173 415 -463 590 -599 396 -310 981 -547 1518 -616 211 -28 233 -32 225 -45
-3 -5 -1 -11 5 -15 25 -15 -7 -25 -83 -25 -153 0 -499 66 -712 137 -549 180
-1013 470 -1372 858 -245 264 -291 325 -439 583 -85 147 -159 310 -220 486
-77 221 -149 553 -161 742 -5 95 -5 102 13 107 40 10 44 7 44 -27z m6048 -48
c-20 -183 -31 -245 -63 -383 -44 -188 -56 -232 -112 -390 -131 -372 -314 -687
-589 -1010 -308 -363 -647 -609 -1104 -802 -334 -141 -641 -219 -955 -243
-186 -13 -175 -14 -175 15 0 26 5 28 120 40 112 11 379 56 485 82 132 31 355
106 503 168 131 55 408 207 508 278 40 29 92 64 116 79 53 34 237 192 297 256
149 158 360 426 431 547 29 50 65 108 80 130 51 75 176 339 226 477 87 243
173 630 174 786 0 41 1 42 33 42 l33 0 -8 -72z m-328 -117 c0 -11 -9 -21 -22
-25 -35 -9 -38 -8 -38 19 0 21 5 25 30 25 23 0 30 -5 30 -19z m61 -133 l70
-11 -7 -31 c-3 -17 -8 -33 -10 -35 -4 -4 -177 40 -187 49 -4 4 -5 14 -1 23 7
20 38 21 135 5z m-47 -158 c60 -14 72 -20 74 -40 3 -16 0 -21 -10 -18 -7 3
-50 20 -95 38 -52 19 -83 37 -83 46 0 12 4 13 22 3 12 -7 54 -19 92 -29z m-4
30 c85 -19 92 -21 88 -25 -5 -6 -138 21 -146 29 -8 8 6 7 58 -4z m-12 -142
c54 -16 62 -22 62 -43 0 -14 -4 -25 -9 -25 -14 0 -175 61 -185 70 -4 5 -5 13
-1 20 8 13 36 8 133 -22z m-132 -86 c5 -5 38 -19 74 -31 36 -13 69 -27 73 -31
11 -10 -1 -50 -15 -50 -6 0 -48 17 -94 38 -53 23 -84 43 -84 53 0 27 25 39 46
21z m30 -161 c63 -26 69 -30 67 -56 -1 -15 -4 -29 -6 -32 -6 -5 -187 88 -187
97 0 29 43 26 126 -9z m-60 -108 c62 -27 84 -41 84 -55 0 -33 -29 -31 -115 8
-85 38 -96 49 -73 72 15 15 6 18 104 -25z m-52 -120 l83 -36 -20 -36 -20 -37
-83 41 c-85 41 -102 63 -72 93 17 17 20 16 112 -25z m675 -36 c26 -17 48 -45
67 -83 26 -53 27 -59 15 -103 -27 -101 -84 -151 -173 -151 -73 0 -150 65 -168
142 -16 64 -8 111 26 155 56 74 156 91 233 40z m-767 -66 c35 -15 73 -31 86
-35 12 -4 22 -11 22 -14 0 -13 -92 -165 -158 -262 -116 -169 -382 -480 -410
-480 -5 0 -17 15 -25 33 -9 17 -32 48 -51 66 -33 32 -49 60 -27 46 5 -3 13 5
16 17 4 13 35 52 69 88 150 156 273 324 366 495 39 74 40 75 45 75 3 0 33 -13
67 -29z m-5436 -29 c86 -69 38 -212 -71 -212 -33 0 -81 44 -95 85 -15 44 1 96
37 125 32 25 100 26 129 2z m534 -572 c11 -21 20 -43 20 -47 0 -18 -102 -149
-132 -170 -43 -30 -61 -29 -100 6 l-33 29 15 43 c12 35 25 49 70 75 30 18 71
48 89 68 19 20 38 36 43 36 4 0 17 -18 28 -40z m5155 6 c18 -8 40 -25 49 -38
33 -50 -21 -138 -84 -138 -64 0 -119 94 -85 146 27 42 67 52 120 30z m-4291
-189 c113 -97 331 -235 486 -309 188 -89 190 -90 190 -98 0 -3 14 -7 31 -8 34
-3 73 -25 62 -35 -3 -4 1 -7 11 -7 9 0 31 -8 49 -17 18 -9 36 -16 41 -15 5 2
22 -2 38 -9 19 -8 32 -8 41 -1 8 6 31 6 72 -3 33 -7 60 -14 60 -15 0 -11 223
-39 373 -47 l122 -6 0 -114 0 -114 -32 5 c-18 3 -71 11 -118 16 -456 57 -940
213 -1287 415 -101 60 -137 84 -285 193 l-87 65 61 66 c33 36 65 76 71 88 12
26 12 26 101 -50z m-668 -12 l27 -35 -29 -43 c-34 -50 -542 -567 -598 -608
-21 -16 -47 -29 -58 -29 -27 0 -33 26 -11 54 38 50 320 374 387 446 39 42 106
115 149 163 43 48 85 87 92 87 8 0 26 -16 41 -35z m4703 -139 c120 -107 477
-471 520 -532 13 -19 22 -37 18 -40 -13 -13 -65 32 -292 255 -132 130 -277
272 -322 316 -65 61 -80 81 -72 92 6 7 16 13 21 13 5 0 62 -47 127 -104z
m-595 51 c11 -31 3 -43 -36 -52 -24 -6 -28 -3 -34 21 -6 22 -2 31 16 46 28 23
42 19 54 -15z m-124 -97 c11 -27 11 -32 -6 -45 -28 -22 -47 -14 -58 23 -7 26
-6 36 5 43 26 16 47 9 59 -21z m-138 -67 c26 -23 22 -51 -8 -65 -21 -10 -27
-9 -35 3 -12 20 -11 53 3 67 15 15 18 15 40 -5z m592 -65 c107 -96 186 -189
186 -222 0 -6 -48 37 -107 95 -60 58 -125 118 -145 133 -21 16 -38 35 -38 42
0 29 35 12 104 -48z m-712 -32 c15 -33 4 -56 -26 -56 -19 0 -27 7 -32 25 -3
14 -4 32 0 40 9 24 45 18 58 -9z m-139 -114 c-43 -32 -82 10 -47 50 19 20 19
20 41 -9 22 -26 22 -29 6 -41z m-125 -22 l23 -30 -27 -10 c-30 -12 -44 -1 -44
36 0 43 19 44 48 4z m-108 -56 c0 -17 -8 -28 -26 -34 -39 -15 -54 -12 -54 11
0 39 17 56 49 51 25 -3 31 -9 31 -28z m-181 -66 c10 -26 -2 -38 -37 -38 -24 0
-38 21 -28 45 9 24 55 19 65 -7z m-136 -37 c5 -22 -10 -31 -54 -31 -55 0 -24
47 32 49 9 1 19 -8 22 -18z m-3742 -519 c25 -42 85 -143 133 -224 48 -82 91
-148 95 -148 3 0 31 39 60 88 29 48 92 148 140 224 l86 136 143 4 c78 1 142 0
142 -3 0 -6 -402 -610 -430 -646 -19 -24 -19 -24 15 -71 18 -26 65 -101 103
-167 147 -254 234 -395 242 -395 13 0 95 187 215 490 40 102 90 223 110 270
45 104 118 281 155 375 15 39 38 87 50 108 20 34 26 37 66 37 l44 0 51 -107
c28 -60 69 -148 91 -198 22 -49 69 -154 104 -233 60 -133 200 -464 281 -662
19 -47 45 -105 56 -130 12 -25 23 -48 25 -52 2 -5 -53 -8 -123 -8 l-126 0 -29
63 c-16 34 -40 94 -54 132 l-24 70 -79 5 c-43 3 -171 3 -284 2 l-207 -4 -58
-134 -59 -134 -105 1 c-58 1 -147 4 -199 8 l-94 6 -137 218 c-76 120 -144 226
-153 234 -14 14 -21 7 -73 -63 -33 -44 -105 -153 -162 -244 -57 -91 -108 -165
-113 -164 -5 1 -66 2 -135 3 l-126 1 48 68 c27 37 80 115 119 174 68 105 85
132 208 328 32 52 68 102 78 112 10 9 19 19 19 23 0 26 -399 635 -435 665 -8
7 -15 15 -15 19 0 3 66 5 147 3 l148 -3 46 -77z m3950 60 c82 -29 111 -46 171
-101 62 -57 92 -115 107 -210 19 -120 -24 -234 -116 -305 -51 -40 -51 -40 -30
-55 43 -28 109 -97 126 -131 47 -91 50 -218 9 -328 -45 -121 -196 -232 -343
-252 -110 -15 -214 4 -315 56 -79 41 -136 93 -185 168 l-38 56 24 55 24 55 72
0 73 0 19 -38 c24 -48 90 -108 145 -133 53 -24 132 -24 196 0 80 30 116 63
140 127 20 54 20 59 5 110 -33 113 -97 150 -284 160 l-121 7 0 41 c0 23 3 65
6 94 l7 52 51 0 c93 1 197 19 238 42 102 58 117 200 30 291 -39 41 -88 59
-163 60 -52 1 -76 -4 -121 -26 -58 -28 -118 -86 -118 -112 0 -12 -18 -15 -95
-15 l-95 0 0 33 c0 85 108 230 207 278 106 52 260 60 374 21z m1954 13 c115
-30 241 -124 302 -226 61 -101 67 -149 68 -484 l0 -300 -27 -73 c-52 -143
-169 -253 -315 -297 -225 -68 -471 32 -568 228 -53 109 -58 154 -52 492 4 289
5 302 30 367 38 105 127 206 227 259 87 46 232 60 335 34z m-3629 -137 c42
-79 94 -172 114 -208 21 -36 79 -147 130 -248 51 -100 94 -181 95 -180 2 2 65
125 142 273 77 149 173 323 213 388 l75 117 97 0 98 0 0 -695 0 -695 -113 0
-114 0 -6 113 c-4 61 -4 254 -1 427 l6 315 -85 -135 c-130 -206 -265 -411
-295 -448 l-28 -33 -46 63 c-59 79 -209 331 -275 461 l-50 98 -6 -188 c-4
-103 -7 -297 -7 -430 l0 -243 -109 0 -110 0 -5 53 c-14 136 -16 362 -10 829
l7 508 103 0 102 0 78 -142z m2665 126 c50 -15 239 -130 255 -156 4 -6 -3 -20
-17 -30 -13 -10 -44 -36 -69 -57 l-46 -38 -34 28 c-19 16 -58 38 -88 49 -117
44 -230 13 -301 -84 -67 -89 -91 -153 -106 -278 l-7 -58 58 35 c79 48 144 66
236 66 91 0 178 -26 255 -78 104 -69 148 -154 159 -305 17 -243 -109 -413
-350 -474 -149 -37 -342 19 -441 128 -56 62 -75 99 -106 198 -21 69 -23 94
-24 305 0 265 7 302 79 450 71 144 165 234 302 290 71 29 164 33 245 9z"/>
<path d="M7060 8811 c-14 -27 -13 -66 4 -80 16 -14 79 25 84 52 9 44 -67 67
-88 28z"/>
<path d="M4808 8500 c-135 -16 -164 -21 -253 -42 -463 -107 -930 -402 -1251
-788 -128 -155 -166 -209 -243 -347 -120 -216 -194 -407 -245 -633 -42 -188
-49 -288 -43 -574 5 -229 9 -276 31 -384 40 -188 126 -434 212 -605 109 -216
334 -494 544 -670 47 -39 104 -88 128 -109 23 -21 53 -43 67 -48 14 -5 49 -28
78 -50 102 -77 527 -251 729 -300 173 -41 263 -50 495 -50 218 0 393 22 589
75 201 54 579 221 729 321 150 101 372 322 575 575 77 96 106 143 180 294 98
200 154 359 197 568 26 126 27 145 27 432 1 373 -15 478 -115 778 -69 206
-225 490 -368 667 -116 144 -383 401 -517 497 -277 198 -596 327 -937 379
-116 18 -504 26 -609 14z m632 -254 c0 -3 -4 -8 -10 -11 -5 -3 -10 -1 -10 4 0
6 5 11 10 11 6 0 10 -2 10 -4z m-436 -126 c4 -67 4 -125 1 -130 -4 -6 -14 -10
-24 -10 -23 0 -31 42 -31 168 0 90 1 92 23 92 23 0 24 -3 31 -120z m146 36 c0
-125 -9 -176 -31 -176 -24 0 -33 65 -24 175 6 81 8 85 31 85 23 0 24 -2 24
-84z m-300 52 c1 -7 7 -60 14 -118 13 -108 10 -123 -24 -117 -10 1 -19 25 -27
77 -18 113 -17 158 5 163 29 8 32 7 32 -5z m446 2 c15 -15 -17 -235 -34 -234
-6 1 -18 2 -25 3 -17 2 -4 221 15 232 18 12 32 11 44 -1z m-588 -47 c14 -47
42 -179 42 -199 0 -8 -10 -14 -24 -14 -20 0 -26 8 -41 61 -25 91 -31 169 -14
180 22 14 25 11 37 -28z m728 12 c5 -13 -10 -112 -27 -177 -8 -30 -15 -38 -33
-38 l-23 0 12 88 c20 140 23 151 46 145 12 -3 23 -11 25 -18z m-861 -70 c8
-30 22 -81 31 -112 15 -53 15 -58 -2 -70 -9 -7 -20 -10 -24 -8 -12 7 -63 214
-57 230 13 33 36 15 52 -40z m995 28 c0 -48 -52 -213 -67 -213 -25 0 -25 27
-3 135 21 98 24 105 46 105 19 0 24 -5 24 -27z m138 -2 c10 -6 5 -33 -26 -127
-36 -110 -40 -119 -62 -116 -13 1 -25 4 -27 6 -8 8 80 246 91 246 6 0 17 -4
24 -9z m138 -18 c-10 -10 -19 5 -10 18 6 11 8 11 12 0 2 -7 1 -15 -2 -18z
m-1382 -106 c37 -106 38 -127 11 -127 -19 0 -22 7 -61 118 -31 90 -32 97 -17
114 9 10 20 15 24 11 3 -5 23 -56 43 -116z m1379 67 c-5 -45 -85 -234 -99
-234 -27 0 -27 30 1 108 42 115 63 154 83 150 10 -2 16 -12 15 -24z m-1713
-26 c0 -7 13 -26 29 -43 49 -52 121 -165 121 -191 0 -25 -31 -47 -37 -27 -2 5
-26 49 -53 96 -27 47 -52 97 -56 111 -3 14 -12 30 -20 37 -8 6 -11 15 -8 20 8
13 24 11 24 -3z m208 -75 c47 -100 56 -138 31 -138 -11 0 -33 32 -63 90 -45
86 -53 114 -39 128 17 18 33 0 71 -80z m1632 47 c12 -8 12 -14 -4 -47 -39 -82
-98 -173 -111 -173 -24 0 -18 33 21 122 49 112 58 121 94 98z m-1847 -194 c38
-78 44 -106 20 -106 -14 0 -33 25 -67 88 -27 48 -55 94 -62 102 -7 8 -16 29
-19 45 -7 29 -5 28 48 -24 30 -29 66 -76 80 -105z m1964 128 c11 -29 -105
-224 -133 -224 -24 0 -27 27 -7 57 11 15 34 55 52 88 51 92 75 113 88 79z
m-2377 -33 c0 -14 165 -197 254 -281 44 -41 102 -97 128 -123 l49 -49 32 53
c30 49 40 56 162 118 151 77 297 132 410 156 108 22 365 31 485 16 327 -41
720 -207 720 -305 0 -14 -4 -26 -8 -26 -5 0 -37 18 -71 40 -165 107 -343 172
-576 210 -144 24 -274 25 -432 5 -231 -31 -397 -89 -555 -196 -31 -22 -77 -50
-102 -63 l-44 -23 48 -48 48 -47 53 40 c201 150 570 256 824 237 239 -17 524
-112 683 -225 30 -22 59 -40 65 -40 11 0 229 218 274 275 18 22 33 46 33 54 0
21 53 101 68 101 19 0 15 -9 -25 -58 -60 -73 -4 -34 108 77 l98 96 53 -53 c29
-30 86 -84 127 -120 40 -37 91 -91 112 -122 21 -30 64 -82 96 -115 l58 -60
-499 -498 c-274 -273 -533 -528 -575 -565 -42 -37 -78 -69 -81 -72 -3 -3 -14
-13 -26 -22 -20 -18 -20 -17 -16 12 8 53 -43 193 -96 262 -61 80 -123 124
-224 158 -45 15 -84 32 -86 38 -2 6 98 114 222 239 124 126 220 230 213 232
-7 2 -25 14 -42 26 -46 33 -181 92 -275 120 -194 58 -436 58 -657 1 -67 -18
-272 -107 -314 -137 -14 -10 -30 -15 -35 -11 -34 28 123 -135 281 -291 l190
-188 -82 -33 c-105 -42 -186 -107 -274 -219 -37 -46 -79 -156 -79 -206 0 -11
-4 -21 -9 -21 -4 0 -53 46 -107 103 -55 56 -182 183 -282 282 -101 99 -256
254 -345 344 -89 90 -223 222 -297 294 -74 72 -136 133 -138 137 -3 8 155 207
181 229 11 9 17 10 17 2 0 -6 5 -11 11 -11 8 0 7 5 -2 16 -11 13 4 32 112 140
119 118 139 135 139 115z m287 -159 c45 -57 62 -87 55 -94 -13 -13 -84 63
-139 150 -23 37 -42 70 -42 74 -2 16 67 -54 126 -130z m1144 127 c149 -15 158
-28 19 -29 -128 0 -220 9 -220 21 0 20 65 22 201 8z m1031 -66 c-30 -57 -104
-153 -118 -153 -7 0 -16 4 -19 10 -7 12 108 185 132 199 26 15 28 -10 5 -56z
m-2861 -570 c13 -15 12 -15 -8 -4 -24 12 -29 21 -14 21 5 0 15 -7 22 -17z
m3577 -35 c-2 -7 -33 -32 -69 -56 -35 -23 -86 -58 -113 -78 -26 -19 -51 -32
-55 -29 -6 7 57 65 72 65 9 0 28 14 108 78 43 33 63 41 57 20z m-3538 -108
c76 -39 123 -70 116 -77 -3 -3 -31 11 -63 30 -32 19 -63 36 -68 38 -35 13
-135 73 -135 81 0 6 19 -1 43 -15 23 -13 71 -39 107 -57z m3620 -19 c0 -12
-29 -31 -97 -64 -54 -26 -117 -59 -140 -73 -64 -38 -56 -6 9 37 85 55 212 126
221 122 4 -2 7 -12 7 -22z m-3763 -22 c129 -70 221 -129 201 -129 -6 0 -220
95 -255 114 -34 17 -45 46 -18 46 8 0 41 -14 72 -31z m-42 -109 c119 -47 206
-92 216 -113 16 -29 5 -30 -43 -6 -23 12 -97 41 -164 63 -120 41 -121 42 -106
64 8 12 16 22 18 22 2 0 37 -13 79 -30z m3859 14 c13 -33 4 -43 -51 -60 -32
-10 -100 -35 -152 -56 -52 -21 -96 -38 -98 -38 -1 0 -3 9 -3 19 0 26 48 54
179 107 124 50 117 48 125 28z m-3711 -197 c21 -9 37 -23 37 -33 0 -9 -6 -14
-12 -11 -35 13 -210 68 -261 83 -44 12 -57 20 -53 31 3 8 6 19 6 24 0 8 190
-55 283 -94z m3761 77 c13 -33 6 -42 -41 -49 -26 -4 -92 -23 -146 -42 -81 -29
-101 -33 -108 -22 -5 8 -9 16 -9 19 0 6 268 108 286 109 7 1 15 -6 18 -15z
m-3569 -56 c-7 -24 -20 -60 -29 -82 -9 -21 -33 -118 -53 -215 -36 -167 -38
-185 -37 -351 1 -287 49 -486 180 -759 64 -134 75 -171 51 -171 -30 0 -90 104
-162 280 -120 293 -157 616 -106 920 24 141 57 268 92 358 21 52 33 63 42 40
3 -9 7 -7 12 5 15 35 23 16 10 -25z m3175 -20 c40 -91 89 -258 105 -368 23
-146 20 -410 -6 -561 -35 -207 -122 -444 -212 -576 -42 -63 -53 -69 -70 -42
-7 11 0 30 22 66 77 125 160 351 195 530 59 306 36 600 -68 870 -20 51 -36 97
-36 102 0 10 28 41 36 41 3 0 18 -28 34 -62z m-3520 -68 c58 -16 117 -33 133
-39 34 -13 38 -46 5 -38 -74 16 -302 77 -306 81 -2 3 -2 12 2 21 6 18 10 17
166 -25z m2082 0 c88 -23 148 -59 231 -139 120 -115 164 -214 174 -391 7 -137
-7 -227 -51 -315 -103 -206 -276 -318 -513 -332 -286 -17 -529 161 -602 441
-55 208 -3 419 135 552 126 123 258 194 384 208 57 6 170 -5 242 -24z m1257
-13 c29 -60 78 -227 92 -313 7 -47 10 -147 6 -286 l-5 -213 -42 -140 c-37
-125 -113 -293 -140 -310 -4 -3 -34 17 -66 45 -31 27 -61 50 -66 50 -19 0 -6
20 17 26 14 3 25 13 25 22 0 13 -2 13 -18 -1 -30 -27 -35 -19 -13 19 31 51 87
228 99 309 33 216 22 409 -34 602 -22 77 -23 88 -9 95 24 14 64 56 92 99 14
21 29 39 33 39 5 0 18 -19 29 -43z m621 24 c14 -28 16 -27 -46 -40 -30 -7
-100 -27 -155 -45 l-99 -33 0 28 c0 26 5 30 68 48 37 11 96 28 132 39 84 26
87 26 100 3z m-3451 -54 c16 -24 48 -60 71 -81 l41 -37 -21 -112 c-41 -210
-28 -472 34 -699 13 -48 19 -85 15 -82 -5 3 -9 1 -9 -5 0 -5 6 -12 13 -15 6
-3 -7 -3 -31 0 -35 5 -46 2 -60 -14 -9 -10 -27 -22 -39 -26 -13 -4 -23 -12
-23 -17 0 -5 -5 -9 -11 -9 -6 0 -9 7 -5 15 3 8 2 15 -3 15 -13 0 -58 133 -80
235 -43 195 -50 424 -20 593 18 100 59 254 70 268 18 21 26 17 58 -29z m-534
-73 c116 -29 145 -40 145 -54 0 -25 -10 -31 -33 -18 -11 6 -77 25 -146 42 -97
24 -127 35 -129 49 -5 23 -4 23 163 -19z m4019 0 c10 -27 7 -31 -26 -37 -18
-4 -87 -18 -153 -31 -68 -14 -124 -21 -129 -16 -19 19 5 39 61 50 32 7 92 20
133 30 94 23 106 24 114 4z m-4039 -100 c55 -14 110 -29 123 -34 27 -12 31
-46 5 -35 -33 12 -183 45 -238 51 -43 5 -55 11 -55 24 0 9 3 20 6 23 7 7 10 7
159 -29z m4065 -42 l0 -28 -142 -17 c-178 -21 -170 -22 -166 5 3 21 12 24 98
35 83 10 200 28 208 32 1 0 2 -12 2 -27z m-4033 -69 c77 -12 100 -19 96 -29
-6 -17 -14 -17 -123 -4 -139 17 -190 30 -190 47 0 17 33 15 217 -14z m4047
-49 c14 -36 7 -42 -61 -48 -170 -14 -253 -17 -253 -10 1 30 25 39 147 55 167
22 160 21 167 3z m-4051 -50 c85 -6 97 -9 97 -25 0 -22 7 -21 -162 -9 -125 9
-168 20 -168 42 0 7 21 9 68 5 37 -4 111 -9 165 -13z m810 -105 c4 -35 17
-119 27 -186 11 -67 20 -134 20 -148 0 -14 3 -25 8 -25 10 0 30 -67 23 -78 -3
-5 -23 -12 -44 -16 -37 -7 -38 -7 -31 21 4 15 11 34 17 41 7 9 4 12 -12 12
-14 0 -21 6 -21 20 0 11 -4 20 -10 20 -15 0 -12 -28 6 -55 9 -13 14 -30 12
-37 -7 -19 -46 74 -64 151 -9 36 -18 125 -21 196 -6 130 -6 131 18 142 49 23
63 12 72 -58z m3247 -4 l0 -25 -155 0 c-146 0 -155 1 -155 19 0 11 6 22 13 24
6 3 76 6 155 6 l142 1 0 -25z m-4056 -7 c61 -2 91 -7 94 -15 3 -10 -27 -13
-126 -13 -71 0 -144 -3 -161 -6 -26 -6 -31 -4 -31 13 0 28 1 28 72 26 34 -2
103 -4 152 -5z m96 -110 c0 -22 -4 -23 -88 -26 -79 -3 -175 -13 -211 -23 -24
-6 -25 28 -2 36 30 9 208 33 259 34 37 1 42 -2 42 -21z m3956 9 c3 -3 3 -15
-1 -27 -7 -22 -9 -22 -129 -16 -165 10 -186 14 -186 38 0 19 6 19 156 15 85
-3 157 -7 160 -10z m-2752 -273 c11 -28 54 -98 98 -155 43 -57 94 -126 112
-154 19 -27 44 -60 56 -73 l21 -23 -413 -412 c-227 -227 -444 -449 -483 -494
-51 -59 -72 -77 -78 -68 -4 8 -49 46 -100 85 -109 83 -138 109 -278 246 l-106
104 226 230 c124 126 332 339 461 472 129 133 261 267 294 298 32 30 82 79
110 108 l51 54 5 -84 c3 -45 14 -106 24 -134z m-1196 131 c-2 -2 -97 -17 -270
-42 -33 -5 -38 -3 -38 14 0 21 13 25 225 56 75 12 80 11 83 -6 2 -10 2 -20 0
-22z m2928 -390 c215 -214 452 -456 527 -536 l137 -147 -137 -135 c-76 -74
-165 -157 -198 -184 -33 -28 -76 -68 -96 -90 l-36 -40 -16 26 c-9 15 -42 51
-74 81 -32 29 -197 189 -367 354 -170 166 -342 330 -382 366 -40 36 -92 86
-114 113 -38 42 -39 47 -19 45 19 -3 31 12 79 96 31 54 76 122 100 150 55 65
114 187 131 270 l12 65 31 -22 c17 -12 207 -197 422 -412z m966 409 c32 -6 38
-10 38 -30 0 -28 12 -28 -142 -9 -159 20 -168 22 -168 42 0 14 13 15 117 9 64
-3 133 -9 155 -12z m-3872 -113 c0 -16 -12 -20 -83 -29 -45 -6 -103 -17 -127
-26 -74 -24 -95 -24 -98 1 -4 25 25 36 158 58 115 20 150 19 150 -4z m3743 -3
c138 -20 148 -23 145 -42 -4 -26 -32 -25 -193 7 -86 17 -111 26 -113 40 -4 21
-16 21 161 -5z m-3716 -94 c3 -9 1 -19 -5 -23 -6 -3 -74 -22 -152 -41 -121
-29 -143 -32 -150 -20 -6 8 -10 18 -10 22 0 6 265 74 298 77 7 1 15 -6 19 -15z
m3714 -22 c132 -27 136 -29 128 -50 -10 -27 -9 -27 -132 4 -183 45 -177 43
-177 65 0 15 5 18 23 14 12 -3 83 -18 158 -33z m-37 -117 c72 -20 132 -37 134
-40 9 -9 -8 -35 -24 -35 -38 0 -270 76 -280 91 -9 15 7 30 24 25 10 -3 75 -22
146 -41z m-3645 21 c10 -11 2 -16 -41 -26 -29 -7 -100 -28 -157 -47 -83 -28
-105 -32 -112 -21 -14 22 -5 32 47 50 38 12 211 53 245 57 4 1 12 -5 18 -13z
m515 -12 c3 -8 2 -12 -4 -9 -6 3 -10 10 -10 16 0 14 7 11 14 -7z m-169 -53 c3
-5 0 -13 -6 -17 -7 -4 -9 -3 -5 4 3 5 0 13 -6 15 -9 4 -10 6 -1 6 6 1 14 -3
18 -8z m-315 -25 c0 -2 3 -11 6 -20 4 -12 0 -16 -15 -16 -22 0 -181 -58 -243
-89 -39 -20 -48 -18 -48 10 0 24 15 31 157 79 113 37 143 45 143 36z m3520
-26 c103 -31 180 -66 180 -84 0 -25 -18 -28 -57 -8 -21 10 -84 36 -140 56 -75
28 -100 42 -96 52 3 8 13 13 22 10 9 -3 50 -14 91 -26z m-68 -84 c154 -68 209
-99 205 -115 -4 -20 -10 -19 -137 35 -116 50 -157 75 -146 93 10 15 18 14 78
-13z m-3431 -15 c-43 -30 -256 -119 -265 -111 -17 17 4 39 46 50 24 6 77 26
118 44 41 19 82 36 90 39 27 8 34 -6 11 -22z m59 -92 c0 -3 -48 -30 -107 -59
-60 -29 -120 -61 -135 -71 -17 -12 -29 -16 -33 -9 -16 26 9 49 91 86 47 21
102 50 122 66 34 25 38 26 50 11 6 -9 12 -20 12 -24z m3400 -33 c108 -54 125
-66 125 -87 0 -13 -5 -23 -12 -22 -30 6 -273 148 -273 160 0 23 33 13 160 -51z
m-3390 -59 c-61 -57 -240 -156 -240 -133 0 8 7 19 15 26 14 11 234 128 245
129 3 1 -6 -9 -20 -22z m3247 1 c171 -97 203 -120 203 -144 0 -23 -15 -34 -22
-16 -1 5 -46 35 -98 66 -95 58 -140 92 -140 108 0 13 17 9 57 -14z m13 -144
c52 -31 103 -63 113 -72 19 -17 22 -32 6 -32 -12 0 -216 137 -225 151 -11 19
14 7 106 -47z m-3255 27 c-43 -42 -170 -122 -174 -109 -5 16 43 55 116 95 67
37 86 41 58 14z m2009 -156 c11 -19 37 -54 58 -77 21 -23 38 -43 38 -44 0 -8
-119 -45 -220 -69 -110 -26 -124 -27 -305 -22 -194 5 -275 17 -405 59 -105 34
-107 35 -70 63 18 13 39 33 47 44 14 21 40 30 28 11 -8 -13 8 -13 21 -1 5 5
41 11 81 13 39 2 69 6 66 11 -2 4 -11 7 -19 7 -8 0 -14 4 -14 8 0 5 35 2 78
-6 110 -19 382 -11 477 16 105 29 117 28 139 -13z m-891 -299 c172 -56 276
-71 482 -70 195 0 253 8 499 70 137 35 166 35 153 1 -8 -20 -156 -73 -287
-103 -95 -21 -150 -27 -311 -31 -123 -3 -229 -1 -284 6 -102 14 -280 66 -385
113 l-74 33 45 6 c24 3 47 7 50 7 4 1 54 -13 112 -32z m1358 -173 c86 -160 82
-152 68 -169 -6 -8 -16 -13 -21 -12 -9 3 -61 114 -98 212 -17 42 -18 66 -5 66
2 0 27 -44 56 -97z m-1545 61 c-4 -14 -25 -67 -47 -117 -23 -51 -48 -111 -57
-134 -18 -46 -31 -52 -57 -27 -14 15 -11 24 37 113 28 53 63 117 76 144 27 51
59 66 48 21z m1420 -96 c31 -62 63 -130 70 -150 12 -34 11 -39 -6 -48 -28 -15
-29 -14 -51 37 -57 133 -95 273 -73 273 2 0 29 -51 60 -112z m-1306 70 c1 -27
-95 -318 -105 -318 -5 0 -17 5 -25 10 -13 8 -10 25 24 122 55 159 73 198 91
198 8 0 15 -6 15 -12z m1155 -35 c3 -21 23 -91 43 -156 30 -100 34 -120 21
-128 -8 -5 -19 -9 -25 -9 -10 0 -84 275 -84 313 0 10 8 17 19 17 14 0 21 -10
26 -37z m-1485 -78 c-24 -52 -47 -95 -51 -95 -16 0 -39 13 -39 21 0 14 121
181 127 175 3 -3 -14 -48 -37 -101z m456 72 c6 -8 -73 -327 -81 -327 -5 0 -17
5 -25 10 -12 8 -10 27 18 142 18 73 32 146 32 162 0 26 2 28 27 21 16 -4 29
-7 29 -8z m907 -34 c4 -21 13 -67 22 -103 37 -159 39 -171 24 -181 -8 -5 -19
-9 -24 -9 -8 0 -76 290 -75 322 0 7 31 16 41 11 4 -1 9 -19 12 -40z m-791 -34
c-3 -62 -37 -277 -45 -285 -8 -8 -57 7 -52 17 3 4 19 70 35 146 17 76 32 148
35 161 11 45 30 17 27 -39z m681 -111 c14 -89 24 -165 21 -170 -9 -15 -43 -8
-48 10 -4 13 -37 274 -38 302 -1 15 4 20 21 20 16 0 22 -20 44 -162z m-546 83
c-4 -33 -10 -110 -13 -170 -6 -92 -10 -111 -23 -111 -41 1 -43 9 -27 165 9 81
16 154 16 161 0 8 11 14 26 14 27 0 27 0 21 -59z m397 17 c8 -57 26 -257 26
-280 0 -13 -8 -18 -29 -18 l-28 0 -7 88 c-5 74 -9 220 -7 245 1 4 10 7 20 7
16 0 21 -9 25 -42z m-267 -35 c-4 -38 -7 -114 -7 -170 l0 -103 -25 0 c-24 0
-25 2 -25 63 0 35 3 112 7 170 6 106 6 107 31 107 25 0 25 -1 19 -67z m135
-63 c1 -71 2 -147 3 -167 0 -31 -4 -39 -21 -41 -28 -4 -34 19 -34 144 0 144 8
194 31 194 17 0 19 -11 21 -130z"/>
<path d="M4938 6540 c-79 -25 -136 -60 -190 -118 -209 -224 -130 -589 152
-705 45 -18 74 -22 160 -22 100 0 109 2 175 34 170 83 265 251 252 442 -18
267 -291 450 -549 369z m216 -132 c27 -8 61 -32 102 -73 102 -101 126 -208 73
-322 -14 -28 -25 -40 -35 -36 -8 3 -14 10 -14 17 0 6 -27 22 -59 35 -33 13
-80 41 -106 62 -26 22 -57 39 -69 39 -11 1 -80 1 -152 1 l-132 0 12 52 c27
112 88 185 182 218 58 21 141 24 198 7z"/>
<path d="M6390 5734 c0 -8 5 -12 10 -9 6 3 10 10 10 16 0 5 -4 9 -10 9 -5 0
-10 -7 -10 -16z"/>
<path d="M8137 7512 c-23 -25 -21 -74 4 -106 41 -53 109 -20 109 53 0 23 -7
46 -16 55 -21 22 -77 20 -97 -2z"/>
<path d="M1932 4800 c-24 -10 -42 -46 -42 -84 0 -56 106 -95 147 -53 25 24 23
91 -2 116 -25 23 -72 33 -103 21z"/>
<path d="M4487 3529 c7 -7 15 -10 18 -7 3 3 -2 9 -12 12 -14 6 -15 5 -6 -5z"/>
<path d="M3335 2383 c-27 -54 -70 -147 -97 -208 l-48 -110 106 -3 c58 -1 149
-1 203 0 l98 3 -56 122 c-31 67 -73 160 -95 207 -21 47 -44 86 -50 86 -7 0
-34 -44 -61 -97z"/>
<path d="M7735 2746 c-61 -28 -102 -68 -126 -121 -17 -36 -19 -71 -19 -363 0
-351 2 -366 58 -425 98 -104 290 -100 397 8 74 73 77 90 73 426 l-3 294 -27
51 c-70 133 -226 190 -353 130z"/>
<path d="M6740 2221 c-78 -28 -135 -90 -144 -157 -24 -177 97 -316 263 -301
70 6 152 47 186 92 56 75 60 200 9 282 -56 90 -194 127 -314 84z"/>
</g>
</svg>
